<svg width="78" height="67" viewBox="0 0 78 67" fill="none" xmlns="http://www.w3.org/2000/svg">
<path fill-rule="evenodd" clip-rule="evenodd" d="M28.7271 12.7267C28.48 12.4318 28 12.6069 28 12.9919L0 65.9786C0 66.3167 0.383609 66.5112 0.655542 66.311L37.829 57.4919V65.5791C37.829 65.8486 38.0827 66.0457 38.3432 65.9786L56.3263 61.5942C56.39 61.5778 56.4566 61.5769 56.5207 61.5916L67 62.6082H74V58.6082H78V54.6082H74V58.6082H67.25V55.6082H69.5V52.6082H74V48.6082H65L64 44.6082V41.6082L58 41.6082V37.6082L62 37.6082V33.6082H57.4244L38.6056 0.830088C38.406 0.448009 37.829 0.590099 37.829 1.0213V41.4918L28.7271 12.7267ZM65 48.6082H61V52.6082H65V48.6082Z" fill="#F5F5F5"/>
<path d="M73 38.6082H69V42.6082H73V38.6082Z" fill="#F5F5F5"/>
<path d="M64 44.6082H69V48.6082H65H61L64 44.6082Z" fill="#F5F5F5"/>
</svg>
